<svg viewBox="0 0 1844 731" preserveAspectRatio="xMidYMid meet" fill="none" xmlns="http://www.w3.org/2000/svg">
<g filter_="url(#filter0_d)">
<path d="M417.438 246.703V280.031H368.781V471H298.891V280.031H250.516V246.703H417.438ZM632.031 407.578C632.031 414.234 631.797 420.562 631.328 426.562C630.859 432.469 629.688 438 627.812 443.156C626.031 448.219 623.266 452.766 619.516 456.797C615.859 460.828 610.797 464.297 604.328 467.203C597.953 470.016 589.938 472.172 580.281 473.672C570.719 475.266 559.047 476.062 545.266 476.062C531.203 476.062 519.297 475.219 509.547 473.531C499.891 471.844 491.875 469.594 485.5 466.781C479.125 463.969 474.156 460.734 470.594 457.078C467.031 453.328 464.406 449.438 462.719 445.406C461.031 441.281 460 437.156 459.625 433.031C459.344 428.906 459.203 424.969 459.203 421.219V336.844C459.203 333.094 459.344 329.156 459.625 325.031C460 320.906 461.031 316.828 462.719 312.797C464.406 308.766 467.031 304.922 470.594 301.266C474.156 297.516 479.125 294.234 485.5 291.422C491.875 288.609 499.891 286.359 509.547 284.672C519.297 282.984 531.203 282.141 545.266 282.141C558.953 282.141 570.625 282.984 580.281 284.672C589.938 286.359 597.953 288.609 604.328 291.422C610.797 294.234 615.859 297.516 619.516 301.266C623.266 304.922 626.078 308.766 627.953 312.797C629.828 316.828 631 320.953 631.469 325.172C631.938 329.297 632.172 333.188 632.172 336.844V389.578H529.094V437.672H562.281V407.719L632.031 407.578ZM529.094 364.547H562.281V321.938H529.094V364.547ZM766.469 408.562C765.719 407.719 763.656 407.062 760.281 406.594C756.906 406.125 752.734 405.609 747.766 405.047C742.797 404.391 737.266 403.594 731.172 402.656C725.078 401.719 718.891 400.359 712.609 398.578C706.328 396.797 700.234 394.5 694.328 391.688C688.422 388.875 683.172 385.312 678.578 381C673.984 376.688 670.281 371.531 667.469 365.531C664.75 359.531 663.391 352.406 663.391 344.156C663.391 338.156 663.859 332.484 664.797 327.141C665.734 321.703 667.375 316.688 669.719 312.094C672.156 307.5 675.484 303.375 679.703 299.719C683.922 295.969 689.312 292.828 695.875 290.297C702.438 287.672 710.312 285.656 719.5 284.25C728.688 282.844 739.516 282.141 751.984 282.141C764.453 282.328 775.094 283.031 783.906 284.25C792.719 285.469 800.078 287.109 805.984 289.172C811.984 291.234 816.719 293.766 820.188 296.766C823.75 299.766 826.422 303.141 828.203 306.891C830.078 310.641 831.25 314.812 831.719 319.406C832.281 323.906 832.562 328.734 832.562 333.891V345.984L766.469 341.766V321.938H733.281V349.078C734.125 349.922 736.234 350.625 739.609 351.188C743.078 351.75 747.297 352.406 752.266 353.156C757.234 353.812 762.766 354.656 768.859 355.688C774.953 356.719 781.094 358.125 787.281 359.906C793.562 361.688 799.609 363.938 805.422 366.656C811.328 369.375 816.578 372.797 821.172 376.922C825.766 381.047 829.422 385.969 832.141 391.688C834.953 397.406 836.359 404.109 836.359 411.797C836.359 422.391 835.141 431.719 832.703 439.781C830.359 447.75 825.953 454.453 819.484 459.891C813.016 465.234 804.062 469.266 792.625 471.984C781.188 474.703 766.422 476.062 748.328 476.062C736.141 475.781 725.641 474.984 716.828 473.672C708.109 472.453 700.75 470.766 694.75 468.609C688.75 466.453 683.969 463.875 680.406 460.875C676.844 457.781 674.125 454.359 672.25 450.609C670.375 446.859 669.109 442.734 668.453 438.234C667.891 433.734 667.609 428.953 667.609 423.891V412.922L733.281 417.844V437.672H766.469V408.562ZM967 408.562C966.25 407.719 964.188 407.062 960.812 406.594C957.438 406.125 953.266 405.609 948.297 405.047C943.328 404.391 937.797 403.594 931.703 402.656C925.609 401.719 919.422 400.359 913.141 398.578C906.859 396.797 900.766 394.5 894.859 391.688C888.953 388.875 883.703 385.312 879.109 381C874.516 376.688 870.812 371.531 868 365.531C865.281 359.531 863.922 352.406 863.922 344.156C863.922 338.156 864.391 332.484 865.328 327.141C866.266 321.703 867.906 316.688 870.25 312.094C872.688 307.5 876.016 303.375 880.234 299.719C884.453 295.969 889.844 292.828 896.406 290.297C902.969 287.672 910.844 285.656 920.031 284.25C929.219 282.844 940.047 282.141 952.516 282.141C964.984 282.328 975.625 283.031 984.438 284.25C993.25 285.469 1000.61 287.109 1006.52 289.172C1012.52 291.234 1017.25 293.766 1020.72 296.766C1024.28 299.766 1026.95 303.141 1028.73 306.891C1030.61 310.641 1031.78 314.812 1032.25 319.406C1032.81 323.906 1033.09 328.734 1033.09 333.891V345.984L967 341.766V321.938H933.812V349.078C934.656 349.922 936.766 350.625 940.141 351.188C943.609 351.75 947.828 352.406 952.797 353.156C957.766 353.812 963.297 354.656 969.391 355.688C975.484 356.719 981.625 358.125 987.812 359.906C994.094 361.688 1000.14 363.938 1005.95 366.656C1011.86 369.375 1017.11 372.797 1021.7 376.922C1026.3 381.047 1029.95 385.969 1032.67 391.688C1035.48 397.406 1036.89 404.109 1036.89 411.797C1036.89 422.391 1035.67 431.719 1033.23 439.781C1030.89 447.75 1026.48 454.453 1020.02 459.891C1013.55 465.234 1004.59 469.266 993.156 471.984C981.719 474.703 966.953 476.062 948.859 476.062C936.672 475.781 926.172 474.984 917.359 473.672C908.641 472.453 901.281 470.766 895.281 468.609C889.281 466.453 884.5 463.875 880.938 460.875C877.375 457.781 874.656 454.359 872.781 450.609C870.906 446.859 869.641 442.734 868.984 438.234C868.422 433.734 868.141 428.953 868.141 423.891V412.922L933.812 417.844V437.672H967V408.562ZM1241.5 407.578C1241.5 414.234 1241.27 420.562 1240.8 426.562C1240.33 432.469 1239.16 438 1237.28 443.156C1235.5 448.219 1232.73 452.766 1228.98 456.797C1225.33 460.828 1220.27 464.297 1213.8 467.203C1207.42 470.016 1199.41 472.172 1189.75 473.672C1180.19 475.266 1168.52 476.062 1154.73 476.062C1140.67 476.062 1128.77 475.219 1119.02 473.531C1109.36 471.844 1101.34 469.594 1094.97 466.781C1088.59 463.969 1083.62 460.734 1080.06 457.078C1076.5 453.328 1073.88 449.438 1072.19 445.406C1070.5 441.281 1069.47 437.156 1069.09 433.031C1068.81 428.906 1068.67 424.969 1068.67 421.219V336.844C1068.67 333.094 1068.81 329.156 1069.09 325.031C1069.47 320.906 1070.5 316.828 1072.19 312.797C1073.88 308.766 1076.5 304.922 1080.06 301.266C1083.62 297.516 1088.59 294.234 1094.97 291.422C1101.34 288.609 1109.36 286.359 1119.02 284.672C1128.77 282.984 1140.67 282.141 1154.73 282.141C1168.42 282.141 1180.09 282.984 1189.75 284.672C1199.41 286.359 1207.42 288.609 1213.8 291.422C1220.27 294.234 1225.33 297.516 1228.98 301.266C1232.73 304.922 1235.55 308.766 1237.42 312.797C1239.3 316.828 1240.47 320.953 1240.94 325.172C1241.41 329.297 1241.64 333.188 1241.64 336.844V389.578H1138.56V437.672H1171.75V407.719L1241.5 407.578ZM1138.56 364.547H1171.75V321.938H1138.56V364.547ZM1279.75 471V288.188H1336.14L1344.02 317.016C1344.95 312.328 1346.41 308.203 1348.38 304.641C1350.34 301.078 1352.59 298.031 1355.12 295.5C1357.75 292.875 1360.56 290.719 1363.56 289.031C1366.56 287.344 1369.56 286.031 1372.56 285.094C1375.56 284.062 1378.47 283.359 1381.28 282.984C1384.09 282.516 1386.58 282.234 1388.73 282.141V337.547L1349.64 348.797V471H1279.75ZM1528.94 471L1522.61 447.516C1520.17 452.297 1517.08 456.469 1513.33 460.031C1509.58 463.594 1505.41 466.594 1500.81 469.031C1496.22 471.375 1491.3 473.109 1486.05 474.234C1480.89 475.453 1475.73 476.062 1470.58 476.062C1459.8 476.062 1450.75 474.422 1443.44 471.141C1436.22 467.953 1430.41 463.734 1426 458.484C1421.69 453.141 1418.59 447.094 1416.72 440.344C1414.94 433.5 1414.05 426.469 1414.05 419.25C1414.05 411.844 1415.12 404.578 1417.28 397.453C1419.53 390.234 1423.33 383.812 1428.67 378.188C1434.11 372.469 1441.38 367.875 1450.47 364.406C1459.66 360.938 1471.19 359.203 1485.06 359.203C1489.84 359.203 1495 359.344 1500.53 359.625C1506.06 359.906 1511.59 360.375 1517.12 361.031V321.938H1483.94V345.422L1428.53 345.281C1427.5 341.625 1426.66 338.016 1426 334.453C1425.34 330.891 1425.02 327.469 1425.02 324.188C1425.02 318.562 1426.19 313.219 1428.53 308.156C1430.97 303 1435.09 298.5 1440.91 294.656C1446.81 290.812 1454.69 287.766 1464.53 285.516C1474.47 283.266 1486.98 282.141 1502.08 282.141C1515.67 282.141 1527.2 282.984 1536.67 284.672C1546.14 286.359 1554.02 288.609 1560.3 291.422C1566.58 294.234 1571.5 297.516 1575.06 301.266C1578.62 304.922 1581.3 308.812 1583.08 312.938C1584.86 316.969 1585.94 321.094 1586.31 325.312C1586.78 329.438 1587.02 333.375 1587.02 337.125V434.859C1587.02 439.359 1587.3 443.719 1587.86 447.938C1588.52 452.156 1589.22 456 1589.97 459.469C1590.91 463.5 1591.94 467.344 1593.06 471H1528.94ZM1483.94 386.344V437.672H1517.12V386.344H1483.94Z" fill="white"/>
</g>
<defs>
<filter id="filter0_d" x="0.515625" y="0.703125" width="1842.55" height="729.359" filterUnits="userSpaceOnUse" color-interpolation-filters="sRGB">
<feFlood flood-opacity="0" result="BackgroundImageFix"/>
<feColorMatrix in="SourceAlpha" type="matrix" values="0 0 0 0 0 0 0 0 0 0 0 0 0 0 0 0 0 0 127 0"/>
<feGaussianBlur stdDeviation="9"/>
<feColorMatrix type="matrix" values="0 0 0 0 0.0901961 0 0 0 0 0.0901961 0 0 0 0 0.0901961 0 0 0 1.1 0"/>
<feBlend mode="normal" in2="BackgroundImageFix" result="effect1_dropShadow"/>
<feBlend mode="normal" in="SourceGraphic" in2="effect1_dropShadow" result="shape"/>
</filter>
</defs>
</svg>
